<?xml version="1.0" encoding="UTF-8"?>
<svg id="Calque_2" data-name="Calque 2" xmlns="http://www.w3.org/2000/svg" viewBox="0 0 197.61 246.79">
  <defs>
    <style>
      .cls-1 {
        fill: #fcc300;
      }

      .cls-2 {
        fill: #b3b3b3;
      }
    </style>
  </defs>
  <g id="Calque_1-2" data-name="Calque 1">
    <g>
      <g>
        <path d="M142.01,99.58v-8.28h-41.48v79.99h41.48v-8.27h-32.57v-31.4h31.61v-8.28h-31.61v-23.76h32.57Z"/>
        <polygon class="cls-1" points="142.01 79.97 100.53 79.97 100.53 68.68 126.23 68.68 142.01 79.97"/>
      </g>
      <g>
        <g>
          <path d="M122.79,28.67c12.95,0,25.55,2.74,37.8,8.2,12.24,5.47,22.92,12.86,32.02,22.17V27.46c-20.03-14.97-42.8-22.46-68.3-22.46-32.79,0-60.87,11.69-84.24,35.06C16.69,63.43,5,91.52,5,124.3s11.79,60.07,35.37,83.03c23.57,22.97,51.56,34.46,83.94,34.46,24.89,0,47.66-7.49,68.3-22.47v-31.57c-9.51,9.51-20.24,16.96-32.18,22.32-11.94,5.36-24.28,8.04-37.03,8.04-25.5,0-47.36-9.41-65.58-28.23-18.21-18.83-27.32-40.99-27.32-66.49s9-47.66,27.02-66.48c18.01-18.82,39.77-28.24,65.27-28.24Z"/>
          <path class="cls-2" d="M195.61,23.45C174.78,7.89,150.79,0,124.31,0,90.3,0,60.77,12.29,36.53,36.53,12.29,60.76,0,90.29,0,124.3s12.41,62.78,36.88,86.61c24.43,23.81,53.84,35.88,87.43,35.88,25.86,0,49.83-7.88,71.24-23.42l2.06-1.5v-56.09l-13.49,13.48c-8.44,8.45-18.07,15.13-28.6,19.86-10.33,4.64-21.14,6.99-32.12,6.99-22.32,0-40.95-8.04-56.96-24.58-16.11-16.65-23.94-35.67-23.94-58.14s7.75-41.53,23.69-58.18c15.8-16.51,34.31-24.54,56.6-24.54,11.18,0,22.25,2.41,32.91,7.16,10.8,4.83,20.34,11.42,28.33,19.6l13.58,13.89V24.95l-2-1.5Zm-35.02,13.42c-12.25-5.46-24.85-8.2-37.8-8.2-25.5,0-47.26,9.42-65.27,28.24-18.02,18.82-27.02,40.98-27.02,66.48s9.11,47.66,27.32,66.49c18.22,18.82,40.08,28.23,65.58,28.23,12.75,0,25.09-2.68,37.03-8.04,11.94-5.36,22.67-12.81,32.18-22.32v31.57c-20.64,14.98-43.41,22.47-68.3,22.47-32.38,0-60.37-11.49-83.94-34.46C16.79,184.37,5,156.69,5,124.3S16.69,63.43,40.07,40.06C63.44,16.69,91.52,5,124.31,5c25.5,0,48.27,7.49,68.3,22.46v31.58c-9.1-9.31-19.78-16.7-32.02-22.17Z"/>
        </g>
        <path class="cls-1" d="M197.61,81.32V24.95l-2-1.5C174.78,7.89,150.79,0,124.31,0,90.3,0,60.77,12.29,36.53,36.53,12.29,60.76,0,90.29,0,124.3s12.41,62.78,36.88,86.61c24.43,23.81,53.84,35.88,87.43,35.88,25.86,0,49.83-7.88,71.24-23.42l2.06-1.5v-56.09l-5,5v48.54c-20.64,14.98-43.41,22.47-68.3,22.47-32.38,0-60.37-11.49-83.94-34.46C16.79,184.37,5,156.69,5,124.3S16.69,63.43,40.07,40.06C63.44,16.69,91.52,5,124.31,5c25.5,0,48.27,7.49,68.3,22.46v48.86l5,5Z"/>
      </g>
    </g>
  </g>
</svg>