<?xml version="1.0" encoding="UTF-8"?>
<svg id="Calque_2" data-name="Calque 2" xmlns="http://www.w3.org/2000/svg" viewBox="0 0 587.06 255.31">
  <defs>
    <style>
      .cls-1 {
        fill: #fcc300;
      }

      .cls-2 {
        fill: #b3b3b3;
      }
    </style>
  </defs>
  <g id="Calque_1-2" data-name="Calque 1">
    <g>
      <g>
        <path class="cls-1" d="M26.92,218.74c0,.36-.15,.71-.4,.97L0,246.23V0L24.98,17.87l1.79,1.41,.15,199.46Z"/>
        <polygon class="cls-1" points="440.4 255.31 2.36 255.31 29.28 228.39 135.69 228.35 219.3 228.35 402.62 228.28 440.4 255.31"/>
      </g>
      <g>
        <path d="M71.78,51.37c6.14-6.08,13.51-9.12,22.07-9.12,4.52,0,8.93,.95,13.2,2.86,4.28,1.91,8.02,4.49,11.2,7.75v-11.04c-7-5.23-14.96-7.85-23.87-7.85-11.46,0-21.27,4.09-29.44,12.26l-.14,.14c-8.08,8.13-12.12,17.91-12.12,29.3s4.12,20.98,12.36,29.01c8.24,8.03,18.02,12.04,29.34,12.04,8.7,0,16.65-2.61,23.87-7.85v-11.03c-3.33,3.32-7.08,5.92-11.25,7.8-4.17,1.87-8.49,2.81-12.94,2.81-8.91,0-16.55-3.29-22.92-9.87-6.36-6.58-9.54-14.32-9.54-23.23s3.14-16.66,9.44-23.24c.24-.25,.49-.51,.74-.74Z"/>
        <path d="M154.95,107.07V35.35h-8.91V115.34h30.98v-8.27h-22.07Z"/>
        <path d="M336.58,30.76l-29.17,67.26-29.07-67.26-16.24,84.58h9.19s10.49-54.13,10.49-54.13l25.67,57.5,25.92-57.37,10.26,54.01h9.18s-16.23-84.59-16.23-84.59Z"/>
        <path d="M417.21,43.63v-8.28h-41.48V115.34h41.48v-8.27h-32.57v-31.4h31.61v-8.28h-31.61v-23.76h32.57Z"/>
        <path d="M508.02,35.35v61.96l-62.38-65.38V115.34h8.91V53.72l62.38,65.38V35.35h-8.91Z"/>
        <path d="M539.32,35.35v8.28h19.31V115.34h8.91V43.63h19.52v-8.28h-47.74Z"/>
        <g>
          <path d="M240.04,43.63v-8.28h-41.48V115.34h41.48v-8.27h-32.57v-31.4h31.61v-8.28h-31.61v-23.76h32.57Z"/>
          <polygon class="cls-1" points="240.04 24.01 198.56 24.01 198.56 12.72 224.26 12.72 240.04 24.01"/>
        </g>
      </g>
      <g>
        <path class="cls-2" d="M90.55,162.6c-1.83-1.87-3.98-3.36-6.44-4.45-2.46-1.1-4.99-1.65-7.59-1.65-5.12,0-9.5,1.89-13.12,5.67-3.62,3.78-5.43,8.24-5.43,13.36s1.83,9.58,5.49,13.36c3.66,3.78,8.05,5.67,13.18,5.67,2.56,0,5.04-.54,7.44-1.62,2.4-1.08,4.55-2.57,6.47-4.48v6.34c-4.15,3.01-8.72,4.51-13.73,4.51-6.51,0-12.13-2.31-16.87-6.92-4.74-4.61-7.11-10.18-7.11-16.68s2.35-12.23,7.05-16.93c4.7-4.7,10.34-7.05,16.93-7.05,5.12,0,9.7,1.5,13.73,4.51v6.34Z"/>
        <path class="cls-2" d="M150.08,175.59c0,6.59-2.35,12.19-7.05,16.8-4.7,4.62-10.34,6.92-16.93,6.92s-12.23-2.31-16.93-6.92c-4.7-4.61-7.05-10.22-7.05-16.8s2.36-12.16,7.08-16.84c4.72-4.68,10.35-7.01,16.9-7.01s12.23,2.33,16.93,6.98c4.7,4.66,7.05,10.28,7.05,16.87Zm-42.82-.06c0,5.21,1.83,9.68,5.49,13.42,3.66,3.74,8.11,5.61,13.36,5.61s9.65-1.86,13.33-5.58c3.68-3.72,5.52-8.2,5.52-13.45s-1.82-9.73-5.46-13.45c-3.64-3.72-8.1-5.58-13.39-5.58s-9.7,1.87-13.36,5.61c-3.66,3.74-5.49,8.21-5.49,13.42Z"/>
        <path class="cls-2" d="M162.59,150.56l35.87,37.59v-35.62h5.12v48.16l-35.87-37.59v35.43h-5.12v-47.96Z"/>
        <path class="cls-2" d="M239.27,161.5c-.94-1.67-2.02-2.92-3.26-3.75-1.24-.83-2.8-1.25-4.67-1.25-2.11,0-3.91,.66-5.4,1.98-1.48,1.32-2.23,3.04-2.23,5.16,0,1.75,.64,3.13,1.92,4.15,1.28,1.02,3.04,2.03,5.28,3.05l3.05,1.34c3.58,1.59,6.31,3.3,8.2,5.15s2.84,4.44,2.84,7.78c0,4.03-1.4,7.4-4.21,10.13-2.81,2.72-6.22,4.09-10.25,4.09-3.7,0-6.83-1.08-9.39-3.23-2.56-2.15-4.21-5.04-4.94-8.66l5-1.4c.37,2.44,1.38,4.47,3.05,6.1,1.67,1.63,3.72,2.44,6.16,2.44,2.56,0,4.78-.85,6.65-2.56,1.87-1.71,2.81-3.84,2.81-6.4,0-2.4-.69-4.19-2.07-5.37-1.38-1.18-3.52-2.44-6.41-3.78l-2.81-1.22c-3.25-1.46-5.73-3.04-7.44-4.73s-2.56-4.04-2.56-7.05c0-3.46,1.25-6.27,3.75-8.45,2.5-2.17,5.54-3.26,9.12-3.26,2.6,0,4.92,.61,6.95,1.83,2.03,1.22,3.68,2.99,4.94,5.31l-4.09,2.62Z"/>
        <path class="cls-2" d="M269.95,198.52h-5.12v-41.24h-11.1v-4.76h27.45v4.76h-11.22v41.24Z"/>
        <path class="cls-2" d="M296.79,198.52h-5.12v-45.99h6.65c5.08,0,9.16,.92,12.23,2.75,3.07,1.83,4.61,5.14,4.61,9.94,0,3.54-1.04,6.46-3.11,8.75-2.07,2.3-4.88,3.61-8.42,3.93l14.64,20.62h-6.28s-13.9-20.2-13.9-20.2h-1.29v20.2Zm0-24.71h1.59c3.54,0,6.36-.56,8.48-1.68,2.11-1.12,3.17-3.3,3.17-6.56,0-3.42-1.02-5.65-3.05-6.71-2.03-1.06-4.92-1.59-8.66-1.59h-1.53v16.53Z"/>
        <path class="cls-2" d="M334.97,179.92c0,2.6,.09,4.64,.27,6.1,.18,1.46,.76,2.86,1.74,4.18,.98,1.32,2.33,2.38,4.06,3.17s3.47,1.19,5.22,1.19,3.42-.36,5-1.07c1.59-.71,2.92-1.71,4-2.99,1.08-1.28,1.73-2.72,1.95-4.33,.22-1.61,.34-3.69,.34-6.25v-27.39h5.12v28.79c0,3.01-.24,5.45-.73,7.32-.49,1.87-1.55,3.67-3.2,5.4-1.65,1.73-3.55,3.04-5.7,3.93-2.16,.89-4.41,1.34-6.77,1.34s-4.43-.4-6.47-1.19c-2.03-.79-3.91-2.02-5.64-3.69-1.73-1.67-2.88-3.5-3.45-5.49-.57-1.99-.85-4.53-.85-7.62v-28.79h5.12v27.39Z"/>
        <path class="cls-2" d="M412.08,162.6c-1.83-1.87-3.98-3.36-6.44-4.45-2.46-1.1-4.99-1.65-7.59-1.65-5.12,0-9.5,1.89-13.11,5.67-3.62,3.78-5.43,8.24-5.43,13.36s1.83,9.58,5.49,13.36c3.66,3.78,8.05,5.67,13.18,5.67,2.56,0,5.04-.54,7.44-1.62,2.4-1.08,4.55-2.57,6.47-4.48v6.34c-4.15,3.01-8.72,4.51-13.72,4.51-6.51,0-12.13-2.31-16.87-6.92-4.74-4.61-7.11-10.18-7.11-16.68s2.35-12.23,7.05-16.93c4.7-4.7,10.34-7.05,16.93-7.05,5.12,0,9.7,1.5,13.72,4.51v6.34Z"/>
        <path class="cls-2" d="M438.18,198.52h-5.12v-41.24h-11.1v-4.76h27.45v4.76h-11.22v41.24Z"/>
        <path class="cls-2" d="M465.15,198.52h-5.12v-45.99h5.12v45.99Z"/>
        <path class="cls-2" d="M525.35,175.59c0,6.59-2.35,12.19-7.04,16.8-4.7,4.62-10.34,6.92-16.93,6.92s-12.23-2.31-16.93-6.92c-4.7-4.61-7.04-10.22-7.04-16.8s2.36-12.16,7.08-16.84c4.72-4.68,10.35-7.01,16.9-7.01s12.23,2.33,16.93,6.98c4.7,4.66,7.04,10.28,7.04,16.87Zm-42.82-.06c0,5.21,1.83,9.68,5.49,13.42,3.66,3.74,8.11,5.61,13.36,5.61s9.65-1.86,13.33-5.58c3.68-3.72,5.52-8.2,5.52-13.45s-1.82-9.73-5.46-13.45c-3.64-3.72-8.1-5.58-13.39-5.58s-9.7,1.87-13.36,5.61c-3.66,3.74-5.49,8.21-5.49,13.42Z"/>
        <path class="cls-2" d="M537.86,150.56l35.87,37.59v-35.62h5.12v48.16l-35.87-37.59v35.43h-5.12v-47.96Z"/>
      </g>
    </g>
  </g>
</svg>